<svg width="167" height="35" viewBox="0 0 167 35" fill="none" xmlns="http://www.w3.org/2000/svg">
<rect x="3.5" y="3.5" width="26" height="26" stroke="#262626" stroke-width="3"/>
<rect x="10.7" y="10.7" width="12.18" height="12.18" fill="#262626"/>
<rect x="23.46" y="6.64001" width="2.9" height="2.9" fill="#262626"/>
<path d="M95.425 13.225C95.425 14.1417 95.2667 15.0333 94.95 15.9C94.65 16.75 94.2333 17.5083 93.7 18.175C93.1667 18.8417 92.5417 19.3833 91.825 19.8C91.125 20.2 90.375 20.4 89.575 20.4C89.375 20.4 89.175 20.35 88.975 20.25C88.775 20.1333 88.5667 20.0083 88.35 19.875L88.225 19.8C88.1917 20.2 88.15 20.6917 88.1 21.275C88.0667 21.8417 88.05 22.475 88.05 23.175C88.05 23.2917 88.05 23.3917 88.05 23.475C88.05 23.5583 88.05 23.6333 88.05 23.7C88.0667 23.7667 88.075 23.8333 88.075 23.9C88.075 23.9667 88.075 24.0583 88.075 24.175C88.075 24.3583 88.1167 24.5417 88.2 24.725C88.3 24.9083 88.35 25.0167 88.35 25.05C88.35 25.2 88.25 25.2833 88.05 25.3C87.85 25.3333 87.725 25.35 87.675 25.35C87.2417 25.35 86.9 25.2833 86.65 25.15C86.4167 25.0167 86.2417 24.7333 86.125 24.3C86.0083 23.8667 85.9333 23.2417 85.9 22.425C85.8833 21.5917 85.875 20.4917 85.875 19.125C85.875 17.975 85.9 16.8667 85.95 15.8C86 14.7333 86.0583 13.7667 86.125 12.9C86.2083 12.0167 86.2833 11.2583 86.35 10.625C86.4333 9.975 86.5 9.49167 86.55 9.175C86.35 9.20833 86.0833 9.28333 85.75 9.4C85.4333 9.5 85.0917 9.625 84.725 9.775C84.3583 9.925 83.9833 10.1 83.6 10.3C83.2167 10.5 82.8667 10.7083 82.55 10.925C82.25 11.1417 82.0083 11.3667 81.825 11.6C81.625 11.8167 81.525 12.0333 81.525 12.25L81.95 13.65C81.95 13.7833 81.925 13.9583 81.875 14.175C81.825 14.375 81.6833 14.475 81.45 14.475C81.1167 14.475 80.8333 14.4167 80.6 14.3C80.35 14.1667 80.15 14.0083 80 13.825C79.8333 13.625 79.7083 13.4167 79.625 13.2C79.5417 12.9833 79.5 12.7833 79.5 12.6C79.5 12.0833 79.6833 11.6 80.05 11.15C80.4 10.7 80.8667 10.2917 81.45 9.925C82.0167 9.55833 82.6667 9.225 83.4 8.925C84.1333 8.625 84.875 8.375 85.625 8.175C86.375 7.975 87.0917 7.825 87.775 7.725C88.475 7.60833 89.075 7.55 89.575 7.55C90.1583 7.55 90.7333 7.59167 91.3 7.675C91.8833 7.74167 92.4583 7.91667 93.025 8.2C93.625 8.5 94.0833 8.91667 94.4 9.45C94.7333 9.98333 94.975 10.5167 95.125 11.05C95.275 11.5833 95.3583 12.0583 95.375 12.475C95.4083 12.8917 95.425 13.1417 95.425 13.225ZM93.675 12.15C93.675 11.3667 93.4917 10.7583 93.125 10.325C92.775 9.875 92.3333 9.54167 91.8 9.325C91.2833 9.10833 90.7333 8.98333 90.15 8.95C89.5667 8.9 89.0417 8.875 88.575 8.875C88.475 8.875 88.3 8.89167 88.05 8.925C87.8167 8.94167 87.5083 8.98333 87.125 9.05C87.675 9.18333 88.0667 9.36667 88.3 9.6C88.5333 9.83333 88.6417 10.0417 88.625 10.225L88.35 17.3C88.35 17.8833 88.4 18.3167 88.5 18.6C88.6 18.8833 88.8833 19.025 89.35 19.025C89.8 19.025 90.275 18.7833 90.775 18.3C91.2917 17.8 91.7583 17.2 92.175 16.5C92.6083 15.7833 92.9667 15.0333 93.25 14.25C93.5333 13.45 93.675 12.75 93.675 12.15ZM100.436 12.425C100.436 12.5417 100.377 12.6417 100.261 12.725C100.144 12.7917 100.011 12.8417 99.8607 12.875C99.7274 12.9083 99.5941 12.9333 99.4607 12.95C99.3274 12.9667 99.2441 12.975 99.2107 12.975C98.8607 12.975 98.5107 12.875 98.1607 12.675C97.8274 12.475 97.5191 12.1583 97.2357 11.725C97.2024 11.675 97.1524 11.6083 97.0857 11.525C97.0191 11.4417 96.9857 11.3833 96.9857 11.35C96.9857 11.2667 97.0441 11.1917 97.1607 11.125C97.2941 11.0583 97.4357 10.9917 97.5857 10.925C97.7524 10.8583 97.9024 10.8083 98.0357 10.775C98.1857 10.7417 98.2857 10.725 98.3357 10.725C98.6691 10.725 98.9941 10.8083 99.3107 10.975C99.6441 11.1417 99.9107 11.45 100.111 11.9C100.144 11.95 100.202 12.0417 100.286 12.175C100.386 12.2917 100.436 12.375 100.436 12.425ZM102.986 20C102.936 20.4 102.844 20.8167 102.711 21.25C102.577 21.6833 102.386 22.0917 102.136 22.475C101.902 22.8417 101.602 23.15 101.236 23.4C100.869 23.6333 100.419 23.75 99.8857 23.75C99.4691 23.75 99.0441 23.6083 98.6107 23.325C98.1774 23.025 97.8774 22.6333 97.7107 22.15C97.5607 21.6667 97.4857 21.2 97.4857 20.75C97.4857 20.6167 97.4941 20.4167 97.5107 20.15C97.5274 19.8833 97.5357 19.5583 97.5357 19.175V16.425C97.5357 16.2917 97.5274 16.15 97.5107 16C97.5107 15.85 97.4941 15.7083 97.4607 15.575C97.4441 15.5083 97.4107 15.4333 97.3607 15.35C97.3274 15.2667 97.3107 15.2083 97.3107 15.175C97.3107 15.1083 97.3524 15.0583 97.4357 15.025C97.5191 14.975 97.6107 14.9417 97.7107 14.925C97.8107 14.9083 97.9024 14.9 97.9857 14.9C98.0857 14.9 98.1357 14.9 98.1357 14.9C98.1857 14.9 98.3024 14.9083 98.4857 14.925C98.6691 14.925 98.8607 14.95 99.0607 15C99.2607 15.05 99.4357 15.1333 99.5857 15.25C99.7524 15.35 99.8357 15.5 99.8357 15.7C99.8524 15.75 99.8191 15.8417 99.7357 15.975C99.6691 16.1083 99.6024 16.3417 99.5357 16.675C99.5191 16.8083 99.5024 16.9333 99.4857 17.05C99.4691 17.15 99.4524 17.2667 99.4357 17.4C99.4191 17.5333 99.4024 17.7 99.3857 17.9C99.3691 18.0833 99.3524 18.325 99.3357 18.625V20.125C99.3357 20.3917 99.3441 20.6667 99.3607 20.95C99.3774 21.2167 99.4107 21.4667 99.4607 21.7C99.5274 21.9167 99.6274 22.1 99.7607 22.25C99.8941 22.3833 100.069 22.45 100.286 22.45C100.602 22.45 100.852 22.3583 101.036 22.175C101.219 21.9917 101.361 21.8333 101.461 21.7C101.644 21.45 101.786 21.1417 101.886 20.775C101.986 20.3917 102.077 20 102.161 19.6L102.211 19.35C102.261 19.1 102.411 18.975 102.661 18.975C102.911 18.975 103.036 19.15 103.036 19.5V19.625L102.986 20ZM108.138 18.45C108.138 18.4833 108.163 18.6083 108.213 18.825C108.28 19.0417 108.363 19.3083 108.463 19.625C108.58 19.925 108.713 20.2583 108.863 20.625C109.013 20.975 109.18 21.3083 109.363 21.625C109.547 21.925 109.738 22.175 109.938 22.375C110.138 22.575 110.347 22.675 110.563 22.675C110.897 22.675 111.172 22.5833 111.388 22.4C111.622 22.2167 111.813 21.9833 111.963 21.7C112.13 21.4 112.255 21.0833 112.338 20.75C112.438 20.4 112.513 20.0667 112.563 19.75C112.597 19.6 112.638 19.475 112.688 19.375C112.738 19.275 112.805 19.225 112.888 19.225C113.005 19.225 113.097 19.2583 113.163 19.325C113.23 19.3917 113.272 19.475 113.288 19.575C113.322 19.675 113.338 19.7833 113.338 19.9C113.355 20.0167 113.363 20.125 113.363 20.225V20.3C113.347 20.4667 113.288 20.7583 113.188 21.175C113.088 21.575 112.913 21.9917 112.663 22.425C112.43 22.8417 112.097 23.2167 111.663 23.55C111.247 23.8667 110.713 24.0333 110.063 24.05H110.013C109.147 24.05 108.447 23.775 107.913 23.225C107.38 22.6583 106.897 21.7417 106.463 20.475C106.413 20.4917 106.263 20.7 106.013 21.1C105.763 21.5 105.497 21.9583 105.213 22.475C104.93 22.9917 104.672 23.5 104.438 24C104.205 24.5167 104.088 24.8917 104.088 25.125V25.175C104.088 25.2417 104.13 25.2917 104.213 25.325C104.197 25.4083 104.13 25.4667 104.013 25.5C103.913 25.55 103.813 25.575 103.713 25.575C103.697 25.575 103.613 25.5667 103.463 25.55C103.33 25.5333 103.188 25.5 103.038 25.45C102.888 25.4 102.747 25.3333 102.613 25.25C102.497 25.1833 102.438 25.0917 102.438 24.975L105.838 18.8C105.838 18.7 105.805 18.4667 105.738 18.1C105.688 17.7333 105.605 17.35 105.488 16.95C105.388 16.55 105.255 16.1917 105.088 15.875C104.922 15.5583 104.73 15.4 104.513 15.4C104.247 15.4 104.022 15.4917 103.838 15.675C103.672 15.8583 103.53 16.075 103.413 16.325C103.297 16.575 103.205 16.825 103.138 17.075C103.088 17.3083 103.047 17.4833 103.013 17.6C102.947 17.75 102.78 17.925 102.513 18.125C102.263 18.3083 102.055 18.4 101.888 18.4C101.705 18.4 101.613 18.3167 101.613 18.15C101.613 17.7667 101.755 17.3083 102.038 16.775C102.322 16.2417 102.672 15.725 103.088 15.225C103.522 14.725 103.972 14.3 104.438 13.95C104.922 13.6 105.355 13.425 105.738 13.425C106.088 13.425 106.372 13.5583 106.588 13.825C106.822 14.075 107.013 14.375 107.163 14.725C107.313 15.075 107.422 15.4333 107.488 15.8C107.572 16.1667 107.638 16.4667 107.688 16.7C107.755 16.6333 107.88 16.5 108.063 16.3C108.263 16.0833 108.488 15.8333 108.738 15.55C109.005 15.25 109.288 14.9417 109.588 14.625C109.888 14.2917 110.172 13.9917 110.438 13.725C110.722 13.4417 110.972 13.2167 111.188 13.05C111.405 12.8667 111.563 12.775 111.663 12.775C111.913 12.775 112.18 12.8667 112.463 13.05C112.763 13.2333 112.913 13.4833 112.913 13.8C112.913 13.9 112.872 13.95 112.788 13.95C112.738 13.95 112.688 13.9333 112.638 13.9C112.605 13.85 112.555 13.825 112.488 13.825C112.388 13.825 112.263 13.8667 112.113 13.95C111.963 14.0333 111.747 14.225 111.463 14.525C111.263 14.7417 110.972 15.0583 110.588 15.475C110.222 15.8917 109.855 16.3167 109.488 16.75C109.122 17.1667 108.805 17.5417 108.538 17.875C108.272 18.2083 108.138 18.4 108.138 18.45ZM120.678 20.15C120.678 20.5667 120.603 21.0333 120.453 21.55C120.303 22.0667 120.069 22.55 119.753 23C119.436 23.4333 119.028 23.8 118.528 24.1C118.044 24.4 117.461 24.55 116.778 24.55C116.128 24.55 115.578 24.4333 115.128 24.2C114.678 23.9667 114.303 23.65 114.003 23.25C113.719 22.85 113.511 22.3833 113.378 21.85C113.261 21.3 113.203 20.725 113.203 20.125C113.203 19.5417 113.269 18.9 113.403 18.2C113.536 17.5 113.744 16.85 114.028 16.25C114.311 15.6333 114.669 15.125 115.103 14.725C115.536 14.3083 116.061 14.1 116.678 14.1C116.978 14.1 117.261 14.1667 117.528 14.3C117.794 14.4167 118.028 14.575 118.228 14.775C118.428 14.975 118.586 15.2083 118.703 15.475C118.819 15.7417 118.886 16.0167 118.903 16.3L118.928 16.65C118.928 17.05 118.861 17.4917 118.728 17.975C118.594 18.4417 118.403 18.8833 118.153 19.3C117.903 19.7 117.594 20.0417 117.228 20.325C116.861 20.5917 116.444 20.725 115.978 20.725C115.894 20.725 115.786 20.7167 115.653 20.7C115.536 20.6833 115.419 20.6583 115.303 20.625V21.35C115.303 21.4667 115.336 21.6333 115.403 21.85C115.486 22.0667 115.603 22.2833 115.753 22.5C115.903 22.7 116.094 22.8833 116.328 23.05C116.578 23.2 116.878 23.275 117.228 23.275C117.711 23.275 118.103 23.1833 118.403 23C118.719 22.8 118.978 22.55 119.178 22.25C119.378 21.95 119.528 21.6167 119.628 21.25C119.744 20.8667 119.836 20.5 119.903 20.15C119.953 19.9167 120.003 19.7583 120.053 19.675C120.103 19.5917 120.186 19.55 120.303 19.55C120.553 19.55 120.678 19.6917 120.678 19.975V20.15ZM117.728 16.275C117.728 16.1417 117.686 16 117.603 15.85C117.536 15.7 117.403 15.625 117.203 15.625C116.903 15.625 116.644 15.7833 116.428 16.1C116.211 16.4167 116.028 16.7833 115.878 17.2C115.744 17.6 115.644 17.9917 115.578 18.375C115.511 18.7417 115.478 18.9833 115.478 19.1V19.175C115.478 19.325 115.486 19.45 115.503 19.55C115.536 19.6333 115.628 19.675 115.778 19.675H115.903C116.236 19.675 116.519 19.55 116.753 19.3C116.986 19.05 117.169 18.75 117.303 18.4C117.453 18.05 117.561 17.6917 117.628 17.325C117.694 16.9583 117.728 16.6583 117.728 16.425V16.275ZM125.716 23.275C125.716 23.475 125.641 23.65 125.491 23.8C125.358 23.95 125.183 24.0833 124.966 24.2C124.766 24.3167 124.549 24.4 124.316 24.45C124.099 24.5167 123.916 24.55 123.766 24.55C123.483 24.55 123.166 24.5167 122.816 24.45C122.483 24.4 122.199 24.2833 121.966 24.1C121.699 23.8833 121.474 23.5417 121.291 23.075C121.124 22.5917 120.991 22.025 120.891 21.375C120.808 20.7083 120.749 19.975 120.716 19.175C120.683 18.3583 120.666 17.5083 120.666 16.625C120.666 16.2583 120.674 15.85 120.691 15.4C120.724 14.95 120.758 14.4833 120.791 14C120.824 13.5 120.866 13.0083 120.916 12.525C120.966 12.025 121.016 11.55 121.066 11.1C121.116 10.7833 121.174 10.4417 121.241 10.075C121.308 9.70833 121.374 9.35833 121.441 9.025C121.524 8.69167 121.616 8.39167 121.716 8.125C121.816 7.85833 121.924 7.66667 122.041 7.55C122.174 7.41667 122.349 7.33333 122.566 7.3C122.799 7.25 123.008 7.225 123.191 7.225C123.574 7.225 123.883 7.325 124.116 7.525C124.349 7.725 124.524 8 124.641 8.35C124.774 8.68333 124.858 9.075 124.891 9.525C124.941 9.95833 124.966 10.425 124.966 10.925C124.966 11.6917 124.941 12.525 124.891 13.425C124.841 14.3083 124.733 15.2 124.566 16.1C124.416 17 124.191 17.875 123.891 18.725C123.608 19.575 123.224 20.35 122.741 21.05C122.758 21.2833 122.783 21.5583 122.816 21.875C122.866 22.175 122.933 22.4583 123.016 22.725C123.099 22.9917 123.208 23.2167 123.341 23.4C123.474 23.5833 123.649 23.675 123.866 23.675C124.066 23.675 124.224 23.6333 124.341 23.55C124.458 23.45 124.558 23.3417 124.641 23.225C124.741 23.1083 124.833 23.0083 124.916 22.925C125.016 22.825 125.141 22.775 125.291 22.775C125.458 22.775 125.566 22.825 125.616 22.925C125.683 23.025 125.716 23.1417 125.716 23.275ZM123.841 11.525C123.841 11.3583 123.833 11.1583 123.816 10.925C123.816 10.6917 123.791 10.4667 123.741 10.25C123.708 10.0167 123.658 9.825 123.591 9.675C123.524 9.50833 123.433 9.425 123.316 9.425C123.149 9.425 123.016 9.65833 122.916 10.125C122.816 10.5917 122.733 11.2083 122.666 11.975C122.616 12.725 122.574 13.5833 122.541 14.55C122.524 15.5 122.516 16.4667 122.516 17.45C122.516 17.7333 122.516 18.0333 122.516 18.35C122.516 18.65 122.533 18.9167 122.566 19.15C123.116 17.8333 123.466 16.5583 123.616 15.325C123.766 14.0917 123.841 12.825 123.841 11.525ZM134.621 24.65C134.621 24.8167 134.546 24.9333 134.396 25C134.246 25.0667 134.104 25.1 133.971 25.1L133.471 25.05C133.388 25.05 133.346 25.1 133.346 25.2L133.321 25.5C133.338 25.95 133.346 26.5167 133.346 27.2C133.346 27.8833 133.346 28.5417 133.346 29.175C133.346 29.8417 133.321 30.4917 133.271 31.125C133.238 31.775 133.146 32.35 132.996 32.85C132.846 33.3667 132.629 33.775 132.346 34.075C132.079 34.3917 131.704 34.55 131.221 34.55C130.804 34.55 130.363 34.525 129.896 34.475C129.446 34.4417 129.029 34.3417 128.646 34.175C128.279 34.0083 127.971 33.7583 127.721 33.425C127.488 33.1083 127.371 32.675 127.371 32.125C127.371 31.575 127.429 31.0083 127.546 30.425C127.679 29.8583 127.863 29.3 128.096 28.75C128.329 28.2167 128.604 27.7 128.921 27.2C129.254 26.7167 129.613 26.2833 129.996 25.9C130.196 25.7 130.413 25.4917 130.646 25.275C130.896 25.075 131.113 24.9083 131.296 24.775V24.75C131.329 24.4 131.354 24.05 131.371 23.7C131.388 23.35 131.396 22.9917 131.396 22.625C131.313 22.775 131.213 22.9833 131.096 23.25C130.979 23.5 130.838 23.7417 130.671 23.975C130.521 24.2083 130.346 24.4083 130.146 24.575C129.946 24.7583 129.721 24.85 129.471 24.85C129.338 24.85 129.221 24.825 129.121 24.775C129.021 24.725 128.879 24.7 128.696 24.7C128.229 24.6667 127.838 24.5417 127.521 24.325C127.221 24.1083 126.979 23.8083 126.796 23.425C126.629 23.0417 126.513 22.5917 126.446 22.075C126.379 21.5417 126.346 20.95 126.346 20.3C126.346 19.5167 126.388 18.7083 126.471 17.875C126.571 17.0417 126.738 16.2833 126.971 15.6C127.204 14.9 127.513 14.3333 127.896 13.9C128.296 13.45 128.796 13.225 129.396 13.225C129.463 13.225 129.546 13.25 129.646 13.3C129.763 13.35 129.879 13.4083 129.996 13.475C130.129 13.525 130.254 13.5833 130.371 13.65C130.504 13.7 130.604 13.7333 130.671 13.75C131.004 13.8167 131.313 13.9 131.596 14C131.879 14.1 132.121 14.2333 132.321 14.4C132.521 14.55 132.679 14.7583 132.796 15.025C132.913 15.275 132.971 15.5917 132.971 15.975C132.971 16.2417 132.946 16.4833 132.896 16.7C132.863 16.9167 132.846 17.1917 132.846 17.525C132.846 17.6583 132.896 17.75 132.996 17.8C133.096 17.85 133.204 17.8917 133.321 17.925C133.454 17.9583 133.571 18 133.671 18.05C133.771 18.0833 133.821 18.1667 133.821 18.3C133.821 18.3333 133.779 18.4167 133.696 18.55C133.629 18.6667 133.588 18.7417 133.571 18.775C133.521 18.9083 133.479 19.125 133.446 19.425C133.413 19.7083 133.388 20.025 133.371 20.375C133.354 20.7083 133.338 21.0583 133.321 21.425C133.321 21.775 133.321 22.0917 133.321 22.375C133.321 22.5917 133.321 22.8833 133.321 23.25C133.321 23.6 133.329 23.8917 133.346 24.125H133.446C133.479 24.125 133.513 24.1167 133.546 24.1C133.579 24.1 133.604 24.1 133.621 24.1C133.771 24.1 133.971 24.1417 134.221 24.225C134.488 24.325 134.621 24.4667 134.621 24.65ZM131.421 16.925C131.421 16.7417 131.404 16.5333 131.371 16.3C131.338 16.0667 131.279 15.85 131.196 15.65C131.113 15.4333 130.988 15.2583 130.821 15.125C130.671 14.975 130.479 14.9 130.246 14.9C129.929 14.9 129.629 15.025 129.346 15.275C129.079 15.525 128.838 15.8833 128.621 16.35C128.421 16.8 128.254 17.3583 128.121 18.025C128.004 18.675 127.946 19.4167 127.946 20.25C127.946 20.6 127.954 20.9667 127.971 21.35C128.004 21.7167 128.046 22.05 128.096 22.35C128.163 22.65 128.254 22.9 128.371 23.1C128.504 23.3 128.671 23.4 128.871 23.4C129.221 23.4 129.529 23.25 129.796 22.95C130.063 22.65 130.279 22.2833 130.446 21.85C130.629 21.4 130.763 20.9417 130.846 20.475C130.946 19.9917 131.004 19.575 131.021 19.225C131.038 18.7417 131.063 18.4167 131.096 18.25C131.129 18.0667 131.163 17.95 131.196 17.9C131.296 17.7667 131.354 17.6083 131.371 17.425C131.404 17.2417 131.421 17.075 131.421 16.925ZM131.321 25.625C130.938 25.8917 130.571 26.2667 130.221 26.75C129.888 27.2333 129.596 27.7583 129.346 28.325C129.096 28.8917 128.896 29.4667 128.746 30.05C128.613 30.6333 128.546 31.1583 128.546 31.625C128.546 31.7917 128.563 31.975 128.596 32.175C128.629 32.375 128.679 32.5583 128.746 32.725C128.829 32.9083 128.938 33.0583 129.071 33.175C129.221 33.2917 129.396 33.35 129.596 33.35C129.946 33.35 130.229 33.2 130.446 32.9C130.679 32.6167 130.854 32.275 130.971 31.875C131.104 31.475 131.188 31.0667 131.221 30.65C131.271 30.2333 131.296 29.9 131.296 29.65C131.296 29.6 131.296 29.525 131.296 29.425C131.296 29.325 131.296 29.1333 131.296 28.85C131.313 28.5667 131.321 28.1667 131.321 27.65C131.321 27.15 131.321 26.475 131.321 25.625ZM142.71 20.475C142.71 20.5917 142.668 20.875 142.585 21.325C142.518 21.7583 142.385 22.225 142.185 22.725C142.002 23.2083 141.743 23.6417 141.41 24.025C141.093 24.4083 140.685 24.6 140.185 24.6C139.652 24.6 139.227 24.4083 138.91 24.025C138.593 23.6583 138.352 23.2167 138.185 22.7C138.018 22.1667 137.91 21.6167 137.86 21.05C137.81 20.4667 137.785 19.9833 137.785 19.6C137.785 19.1667 137.81 18.7333 137.86 18.3C137.91 17.85 137.943 17.4083 137.96 16.975C137.96 16.8417 137.893 16.7583 137.76 16.725C137.627 16.6917 137.502 16.675 137.385 16.675C137.185 16.675 137.06 16.7 137.01 16.75C136.96 16.8 136.927 16.8583 136.91 16.925L136.81 17.725C136.743 18.2583 136.668 18.775 136.585 19.275C136.518 19.7583 136.435 20.1917 136.335 20.575C136.252 20.9417 136.143 21.2417 136.01 21.475C135.893 21.6917 135.752 21.8 135.585 21.8H135.56C135.493 21.8 135.427 21.7833 135.36 21.75C135.31 21.7167 135.285 21.6333 135.285 21.5C135.285 21.4333 135.302 21.3333 135.335 21.2C135.468 20.6167 135.552 20.1333 135.585 19.75C135.618 19.3667 135.643 19.025 135.66 18.725V18.55C135.66 18.4667 135.66 18.3667 135.66 18.25C135.677 18.1333 135.685 17.9917 135.685 17.825V17.175C135.685 16.9917 135.685 16.8 135.685 16.6C135.685 16.4 135.668 16.1833 135.635 15.95L135.56 14.475C135.56 14.375 135.602 14.2833 135.685 14.2C135.768 14.1167 135.877 14.0417 136.01 13.975C136.143 13.9083 136.285 13.8583 136.435 13.825C136.585 13.7917 136.718 13.775 136.835 13.775C137.118 13.775 137.26 13.9583 137.26 14.325V14.45L137.235 15V15.15C137.235 15.2667 137.26 15.3417 137.31 15.375C137.36 15.3917 137.46 15.4167 137.61 15.45H137.685C137.818 15.4667 138.035 15.4833 138.335 15.5C138.635 15.5167 138.935 15.55 139.235 15.6C139.535 15.65 139.793 15.7333 140.01 15.85C140.243 15.95 140.36 16.1 140.36 16.3C140.36 16.3667 140.343 16.4667 140.31 16.6C140.277 16.7167 140.235 16.8417 140.185 16.975C140.135 17.0917 140.093 17.2 140.06 17.3C140.027 17.4 140.01 17.4667 140.01 17.5C139.71 18.65 139.56 19.85 139.56 21.1C139.56 21.2 139.568 21.3833 139.585 21.65C139.602 21.9167 139.635 22.1917 139.685 22.475C139.735 22.7583 139.81 23.0083 139.91 23.225C140.01 23.4417 140.135 23.55 140.285 23.55C140.535 23.55 140.76 23.4 140.96 23.1C141.16 22.7833 141.335 22.425 141.485 22.025C141.635 21.6083 141.752 21.1917 141.835 20.775C141.935 20.3583 142.002 20.05 142.035 19.85C142.068 19.6667 142.118 19.5583 142.185 19.525C142.268 19.475 142.343 19.45 142.41 19.45C142.643 19.45 142.76 19.6 142.76 19.9C142.76 19.9333 142.752 20.025 142.735 20.175C142.735 20.3083 142.727 20.4083 142.71 20.475ZM152.508 21.275C152.475 21.5083 152.392 21.7833 152.258 22.1C152.125 22.4167 151.95 22.725 151.733 23.025C151.533 23.3083 151.292 23.55 151.008 23.75C150.742 23.95 150.442 24.05 150.108 24.05C149.608 24.05 149.167 23.8583 148.783 23.475C148.417 23.0917 148.192 22.55 148.108 21.85C148.008 22.1167 147.892 22.425 147.758 22.775C147.625 23.125 147.458 23.45 147.258 23.75C147.058 24.05 146.825 24.3 146.558 24.5C146.308 24.7167 146.008 24.825 145.658 24.825C145.558 24.825 145.483 24.8167 145.433 24.8C145.383 24.7833 145.325 24.7583 145.258 24.725C145.208 24.7083 145.142 24.6917 145.058 24.675C144.992 24.6583 144.892 24.65 144.758 24.65C144.358 24.65 144.017 24.5167 143.733 24.25C143.467 24 143.25 23.675 143.083 23.275C142.917 22.875 142.792 22.4417 142.708 21.975C142.642 21.4917 142.608 21.0417 142.608 20.625C142.608 19.625 142.658 18.675 142.758 17.775C142.875 16.875 143.058 16.0833 143.308 15.4C143.558 14.7 143.883 14.15 144.283 13.75C144.683 13.3333 145.167 13.125 145.733 13.125C146.067 13.125 146.317 13.1583 146.483 13.225C146.667 13.275 146.833 13.3417 146.983 13.425C147.133 13.4917 147.292 13.5667 147.458 13.65C147.642 13.7333 147.892 13.8 148.208 13.85C148.558 14.05 148.8 14.2917 148.933 14.575C149.083 14.8417 149.175 15.1333 149.208 15.45C149.258 15.7667 149.275 16.1 149.258 16.45C149.242 16.7833 149.258 17.1167 149.308 17.45C149.308 17.4667 149.342 17.4917 149.408 17.525C149.492 17.5583 149.583 17.6 149.683 17.65C149.783 17.6833 149.867 17.7417 149.933 17.825C150.017 17.8917 150.058 17.9833 150.058 18.1V18.2C149.892 18.6333 149.792 19.0167 149.758 19.35C149.725 19.6833 149.708 20.0833 149.708 20.55C149.708 20.7833 149.717 21.0417 149.733 21.325C149.767 21.5917 149.808 21.85 149.858 22.1C149.925 22.3333 150.017 22.5333 150.133 22.7C150.25 22.85 150.4 22.925 150.583 22.925C150.783 22.925 150.958 22.825 151.108 22.625C151.275 22.425 151.408 22.2 151.508 21.95C151.625 21.6833 151.717 21.4167 151.783 21.15C151.867 20.8833 151.917 20.6833 151.933 20.55C151.967 20.35 152.05 20.25 152.183 20.25C152.267 20.25 152.342 20.3 152.408 20.4C152.492 20.4833 152.533 20.6417 152.533 20.875C152.533 20.9417 152.533 21.0083 152.533 21.075C152.533 21.125 152.525 21.1917 152.508 21.275ZM147.883 17.225C147.883 17.0417 147.867 16.825 147.833 16.575C147.8 16.325 147.742 16.0917 147.658 15.875C147.575 15.6583 147.45 15.475 147.283 15.325C147.117 15.175 146.892 15.1 146.608 15.1C146.142 15.1 145.758 15.3167 145.458 15.75C145.175 16.1667 144.95 16.6667 144.783 17.25C144.617 17.8167 144.508 18.4083 144.458 19.025C144.408 19.625 144.383 20.1 144.383 20.45C144.383 20.7167 144.392 21.0417 144.408 21.425C144.442 21.7917 144.492 22.1417 144.558 22.475C144.625 22.8083 144.717 23.0917 144.833 23.325C144.967 23.5583 145.133 23.675 145.333 23.675C145.817 23.675 146.183 23.4917 146.433 23.125C146.7 22.7417 146.9 22.275 147.033 21.725C147.167 21.1583 147.258 20.5583 147.308 19.925C147.375 19.275 147.433 18.6833 147.483 18.15C147.517 17.8667 147.592 17.6917 147.708 17.625C147.825 17.5417 147.883 17.4833 147.883 17.45V17.225ZM160.79 17.85C160.557 18.3 160.34 18.775 160.14 19.275C159.94 19.775 159.79 20.1667 159.69 20.45C159.674 20.5333 159.624 20.7083 159.54 20.975C159.474 21.2417 159.39 21.5417 159.29 21.875C159.207 22.1917 159.132 22.5083 159.065 22.825C158.999 23.1417 158.965 23.4 158.965 23.6C158.965 23.6833 158.89 23.7583 158.74 23.825C158.59 23.8917 158.399 23.925 158.165 23.925C157.799 23.925 157.507 23.875 157.29 23.775C157.074 23.675 156.907 23.5167 156.79 23.3C156.69 23.0667 156.624 22.7667 156.59 22.4C156.574 22.0333 156.565 21.5917 156.565 21.075V19.2C156.565 19.0667 156.557 18.9333 156.54 18.8C156.54 18.6667 156.515 18.5833 156.465 18.55C156.382 18.5833 156.274 18.8 156.14 19.2C156.024 19.6 155.907 20.0917 155.79 20.675C155.69 21.2417 155.599 21.8417 155.515 22.475C155.432 23.1083 155.39 23.675 155.39 24.175C155.39 24.3583 155.29 24.4667 155.09 24.5C154.907 24.5333 154.699 24.55 154.465 24.55C154.399 24.55 154.282 24.5333 154.115 24.5C153.965 24.4833 153.807 24.4583 153.64 24.425C153.49 24.3917 153.349 24.3417 153.215 24.275C153.082 24.225 152.999 24.1583 152.965 24.075C152.882 23.8583 152.815 23.5 152.765 23C152.732 22.5 152.715 21.725 152.715 20.675C152.715 20.0583 152.724 19.3417 152.74 18.525C152.774 17.7083 152.807 16.75 152.84 15.65C152.84 15.5 152.832 15.3083 152.815 15.075C152.799 14.825 152.79 14.6833 152.79 14.65C152.79 14.5167 152.84 14.4417 152.94 14.425C153.057 14.3917 153.14 14.375 153.19 14.375C153.307 14.375 153.44 14.3917 153.59 14.425C153.757 14.4417 153.915 14.4667 154.065 14.5C154.232 14.5333 154.382 14.575 154.515 14.625C154.649 14.6583 154.74 14.6917 154.79 14.725V20.75C154.874 20.4167 154.965 20.0333 155.065 19.6C155.182 19.15 155.307 18.7083 155.44 18.275C155.59 17.8417 155.749 17.4417 155.915 17.075C156.082 16.7083 156.257 16.4417 156.44 16.275C156.507 16.225 156.632 16.1917 156.815 16.175C156.999 16.1417 157.149 16.125 157.265 16.125C157.349 16.125 157.449 16.1417 157.565 16.175C157.699 16.1917 157.824 16.225 157.94 16.275C158.057 16.325 158.157 16.3917 158.24 16.475C158.34 16.5417 158.399 16.625 158.415 16.725V20.775V21C158.415 21.1 158.432 21.15 158.465 21.15C158.499 21.15 158.59 20.925 158.74 20.475C158.907 20.025 159.099 19.4917 159.315 18.875C159.532 18.2583 159.765 17.625 160.015 16.975C160.265 16.325 160.49 15.8083 160.69 15.425C160.724 15.3583 160.832 15.325 161.015 15.325C161.215 15.3083 161.39 15.3 161.54 15.3C161.657 15.3 161.815 15.3417 162.015 15.425C162.215 15.4917 162.407 15.5917 162.59 15.725C162.79 15.8583 162.957 16.0083 163.09 16.175C163.24 16.3417 163.315 16.5167 163.315 16.7C163.315 16.7333 163.265 16.8333 163.165 17C163.065 17.15 162.999 17.3083 162.965 17.475C162.849 17.9417 162.765 18.4 162.715 18.85C162.682 19.3 162.665 19.875 162.665 20.575C162.665 20.875 162.674 21.175 162.69 21.475C162.724 21.775 162.765 22.05 162.815 22.3C162.882 22.5333 162.965 22.725 163.065 22.875C163.165 23.025 163.299 23.1 163.465 23.1C163.699 23.1 163.907 23.025 164.09 22.875C164.274 22.7083 164.432 22.4917 164.565 22.225C164.699 21.9583 164.815 21.65 164.915 21.3C165.015 20.9333 165.099 20.5583 165.165 20.175C165.249 19.775 165.399 19.575 165.615 19.575C165.749 19.575 165.832 19.6083 165.865 19.675C165.915 19.7417 165.94 19.8917 165.94 20.125C165.94 20.2583 165.932 20.35 165.915 20.4C165.899 20.6167 165.824 20.9583 165.69 21.425C165.574 21.875 165.399 22.3333 165.165 22.8C164.949 23.25 164.674 23.65 164.34 24C164.007 24.3333 163.624 24.5 163.19 24.5C162.674 24.5 162.249 24.375 161.915 24.125C161.582 23.8917 161.324 23.575 161.14 23.175C160.957 22.7583 160.824 22.2833 160.74 21.75C160.674 21.2167 160.64 20.6583 160.64 20.075V19.9L160.79 17.85Z" fill="#262626"/>
<rect x="56.1373" y="0.566406" width="0.5" height="33" fill="#2A2A2A"/>
</svg>
